{"title":"Helix S01E03 HDTV x264 AAC E-Subs [GWC].mp4","uid":9469203,"size":107182682,"categoryP":"video","categoryS":"tv_shows","magnet":"?xt=urn:btih:c165c6fd4c48d11049c960f7c55b25f410f7711b&amp;dn=Helix+S01E03+HDTV+x264+AAC+E-Subs+%5BGWC%5D.mp4&amp;tr=udp%3A%2F%2Ftracker.openbittorrent.com%3A80&amp;tr=udp%3A%2F%2Fopen.demonii.com%3A1337&amp;tr=udp%3A%2F%2Ftracker.coppersurfer.tk%3A6969&amp;tr=udp%3A%2F%2Fexodus.desync.com%3A6969","seeders":1,"leechers":0,"uploader":"canc232","files":1,"time":1389519275,"description":"Helix S01E03 HDTV x264 AAC E-Subs [GWC] \n\nSCREENS : &lt;a href=&quot;\nhttp://s20.postimg.org/y2xugj4hp/Helix_S01_E03_HDTV_x264_AAC_E_Subs_GWC_13_54_31.jpg&quot; rel=&quot;nofollow&quot; target=&quot;_NEW&quot;&gt;\nhttp://s20.postimg.org/y2xugj4hp/Helix_S01_E03_HDTV_x264_AAC_E_Subs_GWC_13_54_31.jpg&lt;/a&gt; &lt;a href=&quot;\nhttp://s20.postimg.org/4capurji5/Helix_S01_E03_HDTV_x264_AAC_E_Subs_GWC_13_54_42.jpg&quot; rel=&quot;nofollow&quot; target=&quot;_NEW&quot;&gt;\nhttp://s20.postimg.org/4capurji5/Helix_S01_E03_HDTV_x264_AAC_E_Subs_GWC_13_54_42.jpg&lt;/a&gt; &lt;a href=&quot;\nhttp://s20.postimg.org/uyn6jqnp9/Helix_S01_E03_HDTV_x264_AAC_E_Subs_GWC_13_54_47.jpg&quot; rel=&quot;nofollow&quot; target=&quot;_NEW&quot;&gt;\nhttp://s20.postimg.org/uyn6jqnp9/Helix_S01_E03_HDTV_x264_AAC_E_Subs_GWC_13_54_47.jpg&lt;/a&gt;\n\n\nMEDIA INFO :\nGeneral \nFormat : MPEG-4 \nFormat profile : Base Media \nFile size : 102 MiB \nDuration : 43mn 0s \nOverall bit rate : 332 Kbps \n\nVideo \nFormat : AVC \nFormat profile : &lt;a class=&quot;__cf_email__&quot; href=&quot;/cdn-cgi/l/email-protection&quot; data-cfemail=&quot;97dffef0ffd7dba4b9a7&quot;&gt;[email&amp;#160;protected]&lt;/a&gt;&lt;script cf-hash='f9e31' type=&quot;text/javascript&quot;&gt;\n/* &lt;![CDATA[ */!function(){try{var t=&quot;currentScript&quot;in document?document.currentScript:function(){for(var t=document.getElementsByTagName(&quot;script&quot;),e=t.length;e--;)if(t[e].getAttribute(&quot;cf-hash&quot;))return t[e]}();if(t&amp;&amp;t.previousSibling){var e,r,n,i,c=t.previousSibling,a=c.getAttribute(&quot;data-cfemail&quot;);if(a){for(e=&quot;&quot;,r=parseInt(a.substr(0,2),16),n=2;a.length-n;n+=2)i=parseInt(a.substr(n,2),16)^r,e+=String.fromCharCode(i);e=document.createTextNode(e),c.parentNode.replaceChild(e,c)}}}catch(u){}}();/* ]]&gt; */&lt;/script&gt; \nFormat settings, CABAC : Yes \nFormat settings, ReFrames : 4 frames \nDuration : 43mn 0s \nBit rate : 269 Kbps \nMaximum bit rate : 1 547 Kbps \nWidth : 720 pixels \nHeight : 408 pixels \nDisplay aspect ratio : 16:9 \nOriginal display aspect ratio : 16:9 \nFrame rate : 25.000 fps \nStream size : 82.7 MiB (81%) \nTitle : Helix S01E03 HDTV x264 AAC E-Subs [GWC] \nWriting library : x264 core\n\nAudio \nFormat : AAC \nFormat profile : HE-AAC / LC \nDuration : 43mn 0s \nBit rate mode : Variable \nChannel(s) : 2 channels \nSampling rate : 48.0 KHz / 24.0 KHz \nStream size : 18.5 MiB (18%)\nLanguage : English \n\nText \nFormat : Timed Text \nCodec ID : tx3g \nDuration : 42mn 50s \nTitle : English Subtitle by MemoryOnSmells \nLanguage : English","torrent":{"xt":"urn:btih:c165c6fd4c48d11049c960f7c55b25f410f7711b","amp;dn":"Helix+S01E03+HDTV+x264+AAC+E-Subs+%5BGWC%5D.mp4","amp;tr":["udp%3A%2F%2Ftracker.openbittorrent.com%3A80","udp%3A%2F%2Fopen.demonii.com%3A1337","udp%3A%2F%2Ftracker.coppersurfer.tk%3A6969","udp%3A%2F%2Fexodus.desync.com%3A6969"],"infoHash":"c165c6fd4c48d11049c960f7c55b25f410f7711b","infoHashBuffer":{"type":"Buffer","data":[193,101,198,253,76,72,209,16,73,201,96,247,197,91,37,244,16,247,113,27]},"announce":[],"urlList":[]}}